<?xml version="1.0" encoding="utf-8" standalone="no"?>
<!DOCTYPE svg PUBLIC "-//W3C//DTD SVG 1.1//EN"
  "http://www.w3.org/Graphics/SVG/1.1/DTD/svg11.dtd">
<!-- Created with matplotlib (http://matplotlib.sourceforge.net/) -->
<svg height="864pt" version="1.1" viewBox="0 0 864 864" width="864pt" xmlns="http://www.w3.org/2000/svg" xmlns:xlink="http://www.w3.org/1999/xlink">
 <defs>
  <style type="text/css">
*{stroke-linecap:square;stroke-linejoin:round;}
  </style>
 </defs>
 <g id="figure_1">
  <g id="patch_1">
   <path d="
M0 864
L864 864
L864 0
L0 0
z
" style="fill:none;opacity:0.0;"/>
  </g>
  <g id="axes_1">
   <g id="LineCollection_1">
    <defs>
     <path d="
M281.216 -328.191
L295.112 -408.096" id="C0_0_8759ae9d1a"/>
     <path d="
M298.806 -552.696
L217.187 -649.591" id="C0_1_a0374b5401"/>
     <path d="
M690.631 -476.498
L667.623 -425.925" id="C0_2_a5099bbff9"/>
     <path d="
M772.118 -376.514
L667.623 -425.925" id="C0_3_5a8b20412d"/>
     <path d="
M713.846 -516.959
L643.029 -599.498" id="C0_4_00a6e1441d"/>
     <path d="
M485.971 -74.6563
L389.721 -173.124" id="C0_5_431887e653"/>
     <path d="
M643.029 -599.498
L537.253 -422.489" id="C0_6_051bfa439f"/>
     <path d="
M643.029 -599.498
L629.778 -673.644" id="C0_7_a50595e7cc"/>
     <path d="
M667.623 -425.925
L537.253 -422.489" id="C0_8_29ee808103"/>
     <path d="
M537.253 -422.489
L217.187 -649.591" id="C0_9_e2b9591ce0"/>
     <path d="
M537.253 -422.489
L389.721 -173.124" id="C0_a_2f78819f4c"/>
     <path d="
M537.253 -422.489
L295.112 -408.096" id="C0_b_69995e6e77"/>
     <path d="
M164.554 -709.829
L217.187 -649.591" id="C0_c_0ff11c756b"/>
     <path d="
M238.181 -589.402
L217.187 -649.591" id="C0_d_6e854046cf"/>
     <path d="
M234.785 -454.474
L295.112 -408.096" id="C0_e_c1016189f2"/>
    </defs>
    <defs>
     <clipPath id="p50a717da45">
      <rect height="864.0" width="864.0" x="0.0" y="0.0"/>
     </clipPath>
    </defs>
    <g clip-path="url(#p50a717da45)">
     <use style="fill:none;stroke:#000000;stroke-linecap:butt;stroke-width:3;" x="0" xlink:href="#C0_0_8759ae9d1a" y="864.0"/>
    </g>
    <g clip-path="url(#p50a717da45)">
     <use style="fill:none;stroke:#000000;stroke-linecap:butt;stroke-width:3;" x="0" xlink:href="#C0_1_a0374b5401" y="864.0"/>
    </g>
    <g clip-path="url(#p50a717da45)">
     <use style="fill:none;stroke:#000000;stroke-linecap:butt;stroke-width:3;" x="0" xlink:href="#C0_2_a5099bbff9" y="864.0"/>
    </g>
    <g clip-path="url(#p50a717da45)">
     <use style="fill:none;stroke:#000000;stroke-linecap:butt;stroke-width:3;" x="0" xlink:href="#C0_3_5a8b20412d" y="864.0"/>
    </g>
    <g clip-path="url(#p50a717da45)">
     <use style="fill:none;stroke:#000000;stroke-linecap:butt;stroke-width:3;" x="0" xlink:href="#C0_4_00a6e1441d" y="864.0"/>
    </g>
    <g clip-path="url(#p50a717da45)">
     <use style="fill:none;stroke:#000000;stroke-linecap:butt;stroke-width:3;" x="0" xlink:href="#C0_5_431887e653" y="864.0"/>
    </g>
    <g clip-path="url(#p50a717da45)">
     <use style="fill:none;stroke:#000000;stroke-linecap:butt;stroke-width:3;" x="0" xlink:href="#C0_6_051bfa439f" y="864.0"/>
    </g>
    <g clip-path="url(#p50a717da45)">
     <use style="fill:none;stroke:#000000;stroke-linecap:butt;stroke-width:3;" x="0" xlink:href="#C0_7_a50595e7cc" y="864.0"/>
    </g>
    <g clip-path="url(#p50a717da45)">
     <use style="fill:none;stroke:#000000;stroke-linecap:butt;stroke-width:3;" x="0" xlink:href="#C0_8_29ee808103" y="864.0"/>
    </g>
    <g clip-path="url(#p50a717da45)">
     <use style="fill:none;stroke:#000000;stroke-linecap:butt;stroke-width:3;" x="0" xlink:href="#C0_9_e2b9591ce0" y="864.0"/>
    </g>
    <g clip-path="url(#p50a717da45)">
     <use style="fill:none;stroke:#000000;stroke-linecap:butt;stroke-width:3;" x="0" xlink:href="#C0_a_2f78819f4c" y="864.0"/>
    </g>
    <g clip-path="url(#p50a717da45)">
     <use style="fill:none;stroke:#000000;stroke-linecap:butt;stroke-width:3;" x="0" xlink:href="#C0_b_69995e6e77" y="864.0"/>
    </g>
    <g clip-path="url(#p50a717da45)">
     <use style="fill:none;stroke:#000000;stroke-linecap:butt;stroke-width:3;" x="0" xlink:href="#C0_c_0ff11c756b" y="864.0"/>
    </g>
    <g clip-path="url(#p50a717da45)">
     <use style="fill:none;stroke:#000000;stroke-linecap:butt;stroke-width:3;" x="0" xlink:href="#C0_d_6e854046cf" y="864.0"/>
    </g>
    <g clip-path="url(#p50a717da45)">
     <use style="fill:none;stroke:#000000;stroke-linecap:butt;stroke-width:3;" x="0" xlink:href="#C0_e_c1016189f2" y="864.0"/>
    </g>
   </g>
   <g id="PathCollection_1">
    <defs>
     <path d="
M0 12.2577
C3.25077 12.2577 6.36883 10.9661 8.66747 8.66747
C10.9661 6.36883 12.2577 3.25077 12.2577 0
C12.2577 -3.25077 10.9661 -6.36883 8.66747 -8.66747
C6.36883 -10.9661 3.25077 -12.2577 0 -12.2577
C-3.25077 -12.2577 -6.36883 -10.9661 -8.66747 -8.66747
C-10.9661 -6.36883 -12.2577 -3.25077 -12.2577 0
C-12.2577 3.25077 -10.9661 6.36883 -8.66747 8.66747
C-6.36883 10.9661 -3.25077 12.2577 0 12.2577
z
" id="C1_0_c72d4e9f18"/>
     <path d="
M0 24.0884
C6.38831 24.0884 12.5158 21.5503 17.0331 17.0331
C21.5503 12.5158 24.0884 6.38831 24.0884 0
C24.0884 -6.38831 21.5503 -12.5158 17.0331 -17.0331
C12.5158 -21.5503 6.38831 -24.0884 0 -24.0884
C-6.38831 -24.0884 -12.5158 -21.5503 -17.0331 -17.0331
C-21.5503 -12.5158 -24.0884 -6.38831 -24.0884 0
C-24.0884 6.38831 -21.5503 12.5158 -17.0331 17.0331
C-12.5158 21.5503 -6.38831 24.0884 0 24.0884
z
" id="C1_1_a955ad24ec"/>
     <path d="
M0 11.6297
C3.08423 11.6297 6.04256 10.4043 8.22344 8.22344
C10.4043 6.04256 11.6297 3.08423 11.6297 0
C11.6297 -3.08423 10.4043 -6.04256 8.22344 -8.22344
C6.04256 -10.4043 3.08423 -11.6297 0 -11.6297
C-3.08423 -11.6297 -6.04256 -10.4043 -8.22344 -8.22344
C-10.4043 -6.04256 -11.6297 -3.08423 -11.6297 0
C-11.6297 3.08423 -10.4043 6.04256 -8.22344 8.22344
C-6.04256 10.4043 -3.08423 11.6297 0 11.6297
z
" id="C1_2_05652e6539"/>
     <path d="
M0 23.6379
C6.26884 23.6379 12.2818 21.1473 16.7145 16.7145
C21.1473 12.2818 23.6379 6.26884 23.6379 0
C23.6379 -6.26884 21.1473 -12.2818 16.7145 -16.7145
C12.2818 -21.1473 6.26884 -23.6379 0 -23.6379
C-6.26884 -23.6379 -12.2818 -21.1473 -16.7145 -16.7145
C-21.1473 -12.2818 -23.6379 -6.26884 -23.6379 0
C-23.6379 6.26884 -21.1473 12.2818 -16.7145 16.7145
C-12.2818 21.1473 -6.26884 23.6379 0 23.6379
z
" id="C1_3_ee52e4d564"/>
     <path d="
M0 23.2487
C6.16562 23.2487 12.0795 20.799 16.4393 16.4393
C20.799 12.0795 23.2487 6.16562 23.2487 0
C23.2487 -6.16562 20.799 -12.0795 16.4393 -16.4393
C12.0795 -20.799 6.16562 -23.2487 0 -23.2487
C-6.16562 -23.2487 -12.0795 -20.799 -16.4393 -16.4393
C-20.799 -12.0795 -23.2487 -6.16562 -23.2487 0
C-23.2487 6.16562 -20.799 12.0795 -16.4393 16.4393
C-12.0795 20.799 -6.16562 23.2487 0 23.2487
z
" id="C1_4_3aea018e59"/>
     <path d="
M0 12.8938
C3.41947 12.8938 6.69936 11.5352 9.11729 9.11729
C11.5352 6.69936 12.8938 3.41947 12.8938 0
C12.8938 -3.41947 11.5352 -6.69936 9.11729 -9.11729
C6.69936 -11.5352 3.41947 -12.8938 0 -12.8938
C-3.41947 -12.8938 -6.69936 -11.5352 -9.11729 -9.11729
C-11.5352 -6.69936 -12.8938 -3.41947 -12.8938 0
C-12.8938 3.41947 -11.5352 6.69936 -9.11729 9.11729
C-6.69936 11.5352 -3.41947 12.8938 0 12.8938
z
" id="C1_5_433d750260"/>
     <path d="
M0 19.9499
C5.29079 19.9499 10.3656 17.8479 14.1067 14.1067
C17.8479 10.3656 19.9499 5.29079 19.9499 0
C19.9499 -5.29079 17.8479 -10.3656 14.1067 -14.1067
C10.3656 -17.8479 5.29079 -19.9499 0 -19.9499
C-5.29079 -19.9499 -10.3656 -17.8479 -14.1067 -14.1067
C-17.8479 -10.3656 -19.9499 -5.29079 -19.9499 0
C-19.9499 5.29079 -17.8479 10.3656 -14.1067 14.1067
C-10.3656 17.8479 -5.29079 19.9499 0 19.9499
z
" id="C1_6_340d2bc20b"/>
     <path d="
M0 8.76071
C2.32337 8.76071 4.55189 7.83762 6.19476 6.19476
C7.83762 4.55189 8.76071 2.32337 8.76071 0
C8.76071 -2.32337 7.83762 -4.55189 6.19476 -6.19476
C4.55189 -7.83762 2.32337 -8.76071 0 -8.76071
C-2.32337 -8.76071 -4.55189 -7.83762 -6.19476 -6.19476
C-7.83762 -4.55189 -8.76071 -2.32337 -8.76071 0
C-8.76071 2.32337 -7.83762 4.55189 -6.19476 6.19476
C-4.55189 7.83762 -2.32337 8.76071 0 8.76071
z
" id="C1_7_a72a07b2a1"/>
     <path d="
M0 14.7309
C3.90669 14.7309 7.65389 13.1788 10.4163 10.4163
C13.1788 7.65389 14.7309 3.90669 14.7309 0
C14.7309 -3.90669 13.1788 -7.65389 10.4163 -10.4163
C7.65389 -13.1788 3.90669 -14.7309 0 -14.7309
C-3.90669 -14.7309 -7.65389 -13.1788 -10.4163 -10.4163
C-13.1788 -7.65389 -14.7309 -3.90669 -14.7309 0
C-14.7309 3.90669 -13.1788 7.65389 -10.4163 10.4163
C-7.65389 13.1788 -3.90669 14.7309 0 14.7309
z
" id="C1_8_d88ccebe84"/>
     <path d="
M0 96.1938
C25.5109 96.1938 49.9804 86.0582 68.0193 68.0193
C86.0582 49.9804 96.1938 25.5109 96.1938 0
C96.1938 -25.5109 86.0582 -49.9804 68.0193 -68.0193
C49.9804 -86.0582 25.5109 -96.1938 0 -96.1938
C-25.5109 -96.1938 -49.9804 -86.0582 -68.0193 -68.0193
C-86.0582 -49.9804 -96.1938 -25.5109 -96.1938 0
C-96.1938 25.5109 -86.0582 49.9804 -68.0193 68.0193
C-49.9804 86.0582 -25.5109 96.1938 0 96.1938
z
" id="C1_9_bfbdbd5fa2"/>
     <path d="
M0 24.3721
C6.46356 24.3721 12.6633 21.8041 17.2337 17.2337
C21.8041 12.6633 24.3721 6.46356 24.3721 0
C24.3721 -6.46356 21.8041 -12.6633 17.2337 -17.2337
C12.6633 -21.8041 6.46356 -24.3721 0 -24.3721
C-6.46356 -24.3721 -12.6633 -21.8041 -17.2337 -17.2337
C-21.8041 -12.6633 -24.3721 -6.46356 -24.3721 0
C-24.3721 6.46356 -21.8041 12.6633 -17.2337 17.2337
C-12.6633 21.8041 -6.46356 24.3721 0 24.3721
z
" id="C1_a_4f7c4d1cce"/>
     <path d="
M0 31.9766
C8.48028 31.9766 16.6144 28.6073 22.6108 22.6108
C28.6073 16.6144 31.9766 8.48028 31.9766 0
C31.9766 -8.48028 28.6073 -16.6144 22.6108 -22.6108
C16.6144 -28.6073 8.48028 -31.9766 0 -31.9766
C-8.48028 -31.9766 -16.6144 -28.6073 -22.6108 -22.6108
C-28.6073 -16.6144 -31.9766 -8.48028 -31.9766 0
C-31.9766 8.48028 -28.6073 16.6144 -22.6108 22.6108
C-16.6144 28.6073 -8.48028 31.9766 0 31.9766
z
" id="C1_b_6a53aec344"/>
     <path d="
M0 4.63681
C1.2297 4.63681 2.40919 4.14825 3.27872 3.27872
C4.14825 2.40919 4.63681 1.2297 4.63681 0
C4.63681 -1.2297 4.14825 -2.40919 3.27872 -3.27872
C2.40919 -4.14825 1.2297 -4.63681 0 -4.63681
C-1.2297 -4.63681 -2.40919 -4.14825 -3.27872 -3.27872
C-4.14825 -2.40919 -4.63681 -1.2297 -4.63681 0
C-4.63681 1.2297 -4.14825 2.40919 -3.27872 3.27872
C-2.40919 4.14825 -1.2297 4.63681 0 4.63681
z
" id="C1_c_3fdbf888b8"/>
     <path d="
M0 11.2027
C2.97099 11.2027 5.82069 10.0223 7.92149 7.92149
C10.0223 5.82069 11.2027 2.97099 11.2027 0
C11.2027 -2.97099 10.0223 -5.82069 7.92149 -7.92149
C5.82069 -10.0223 2.97099 -11.2027 0 -11.2027
C-2.97099 -11.2027 -5.82069 -10.0223 -7.92149 -7.92149
C-10.0223 -5.82069 -11.2027 -2.97099 -11.2027 0
C-11.2027 2.97099 -10.0223 5.82069 -7.92149 7.92149
C-5.82069 10.0223 -2.97099 11.2027 0 11.2027
z
" id="C1_d_b1c6992a15"/>
     <path d="
M0 28.4737
C7.55131 28.4737 14.7943 25.4735 20.1339 20.1339
C25.4735 14.7943 28.4737 7.55131 28.4737 0
C28.4737 -7.55131 25.4735 -14.7943 20.1339 -20.1339
C14.7943 -25.4735 7.55131 -28.4737 0 -28.4737
C-7.55131 -28.4737 -14.7943 -25.4735 -20.1339 -20.1339
C-25.4735 -14.7943 -28.4737 -7.55131 -28.4737 0
C-28.4737 7.55131 -25.4735 14.7943 -20.1339 20.1339
C-14.7943 25.4735 -7.55131 28.4737 0 28.4737
z
" id="C1_e_7d7afa6bd9"/>
     <path d="
M0 14.6544
C3.88638 14.6544 7.61411 13.1103 10.3622 10.3622
C13.1103 7.61411 14.6544 3.88638 14.6544 0
C14.6544 -3.88638 13.1103 -7.61411 10.3622 -10.3622
C7.61411 -13.1103 3.88638 -14.6544 0 -14.6544
C-3.88638 -14.6544 -7.61411 -13.1103 -10.3622 -10.3622
C-13.1103 -7.61411 -14.6544 -3.88638 -14.6544 0
C-14.6544 3.88638 -13.1103 7.61411 -10.3622 10.3622
C-7.61411 13.1103 -3.88638 14.6544 0 14.6544
z
" id="C1_f_fd6f815905"/>
    </defs>
    <g clip-path="url(#p50a717da45)">
     <use style="fill:#ffffff;stroke:#000000;stroke-linecap:butt;" x="281.216016" xlink:href="#C1_0_c72d4e9f18" y="535.809353143"/>
    </g>
    <g clip-path="url(#p50a717da45)">
     <use style="fill:#ffffff;stroke:#000000;stroke-linecap:butt;" x="298.806336" xlink:href="#C1_1_a955ad24ec" y="311.304260571"/>
    </g>
    <g clip-path="url(#p50a717da45)">
     <use style="fill:#ffffff;stroke:#000000;stroke-linecap:butt;" x="690.630624" xlink:href="#C1_2_05652e6539" y="387.502272"/>
    </g>
    <g clip-path="url(#p50a717da45)">
     <use style="fill:#ffffff;stroke:#000000;stroke-linecap:butt;" x="772.117632" xlink:href="#C1_3_ee52e4d564" y="487.485956571"/>
    </g>
    <g clip-path="url(#p50a717da45)">
     <use style="fill:#e0162b;stroke:#000000;stroke-linecap:butt;" x="713.846304" xlink:href="#C1_4_3aea018e59" y="347.040658286"/>
    </g>
    <g clip-path="url(#p50a717da45)">
     <use style="fill:#e0162b;stroke:#000000;stroke-linecap:butt;" x="485.9712" xlink:href="#C1_5_433d750260" y="789.343734857"/>
    </g>
    <g clip-path="url(#p50a717da45)">
     <use style="fill:#e0162b;stroke:#000000;stroke-linecap:butt;" x="643.028544" xlink:href="#C1_6_340d2bc20b" y="264.502244571"/>
    </g>
    <g clip-path="url(#p50a717da45)">
     <use style="fill:#e0162b;stroke:#000000;stroke-linecap:butt;" x="667.622736" xlink:href="#C1_7_a72a07b2a1" y="438.075277714"/>
    </g>
    <g clip-path="url(#p50a717da45)">
     <use style="fill:#e0162b;stroke:#000000;stroke-linecap:butt;" x="629.77752" xlink:href="#C1_8_d88ccebe84" y="190.355739429"/>
    </g>
    <g clip-path="url(#p50a717da45)">
     <use style="fill:#e0162b;stroke:#000000;stroke-linecap:butt;" x="537.253344" xlink:href="#C1_9_bfbdbd5fa2" y="441.510912"/>
    </g>
    <g clip-path="url(#p50a717da45)">
     <use style="fill:#e0162b;stroke:#000000;stroke-linecap:butt;" x="164.553696" xlink:href="#C1_a_4f7c4d1cce" y="154.170925714"/>
    </g>
    <g clip-path="url(#p50a717da45)">
     <use style="fill:#e0162b;stroke:#000000;stroke-linecap:butt;" x="389.721312" xlink:href="#C1_b_6a53aec344" y="690.876246857"/>
    </g>
    <g clip-path="url(#p50a717da45)">
     <use style="fill:#0052a5;stroke:#000000;stroke-linecap:butt;" x="238.180896" xlink:href="#C1_c_3fdbf888b8" y="274.598084571"/>
    </g>
    <g clip-path="url(#p50a717da45)">
     <use style="fill:#0052a5;stroke:#000000;stroke-linecap:butt;" x="217.18728" xlink:href="#C1_d_b1c6992a15" y="214.408512"/>
    </g>
    <g clip-path="url(#p50a717da45)">
     <use style="fill:#0052a5;stroke:#000000;stroke-linecap:butt;" x="234.785232" xlink:href="#C1_e_7d7afa6bd9" y="409.526372571"/>
    </g>
    <g clip-path="url(#p50a717da45)">
     <use style="fill:#0052a5;stroke:#000000;stroke-linecap:butt;" x="295.112304" xlink:href="#C1_f_fd6f815905" y="455.903547429"/>
    </g>
   </g>
  </g>
 </g>
</svg>
