<?xml version="1.0" standalone="no"?>
<!DOCTYPE svg PUBLIC "-//W3C//DTD SVG 1.1//EN"
  "http://www.w3.org/Graphics/SVG/1.1/DTD/svg11.dtd">
<!-- Created with matplotlib (http://matplotlib.sourceforge.net/) -->
<svg width="864pt" height="864pt" viewBox="0 0 864 864"
   xmlns="http://www.w3.org/2000/svg"
   xmlns:xlink="http://www.w3.org/1999/xlink"
   version="1.1"
   id="svg1">
<filter id="colorAdd"><feComposite in="SourceGraphic" in2="BackgroundImage" operator="arithmetic" k2="1" k3="1"/></filter>
<g id="figure1">
<g id="patch1">
<path style="fill: #ffffff; stroke: #ffffff; stroke-width: 1.000000; stroke-linejoin: round; stroke-linecap: square;  opacity: 1.000000"  d="M0.000000 864.000000L864.000000 864.000000L864.000000 0.000000
L0.000000 0.000000z"/>
</g>
<g id="axes1">
<g id="LineCollection1">
<defs>
<path id="coll0_0_b85ba14c7579f90d69dbad73434c7e13" d="M669.851424 -483.925166L529.850592 -431.465801"/>
<path id="coll0_1_8a394c5c9af0a18781f7297cca87078a" d="M267.444432 -324.491986L529.850592 -431.465801"/>
<path id="coll0_2_4eeaaaaa5b796fc49619849178e5708b" d="M422.395200 -658.972800L529.850592 -431.465801"/>
<path id="coll0_3_dd348cb39409b6af9e1b385f464654d0" d="M636.655680 -52.959867L529.850592 -431.465801"/>
<path id="coll0_4_e39bc96e84656a640fc41e64617e9769" d="M694.251936 -468.497705L529.850592 -431.465801"/>
<path id="coll0_5_94326888587b18684c0331e259b41657" d="M775.054224 -369.073893L529.850592 -431.465801"/>
<path id="coll0_6_10f2113e7fab85fc854ec2a9e1d8d5d1" d="M714.252096 -514.440165L529.850592 -431.465801"/>
<path id="coll0_7_179250e25267093fa9f34923570cbb94" d="M223.042176 -417.060453L529.850592 -431.465801"/>
<path id="coll0_8_ac0a2824bbfef26193241b486ecf5342" d="M481.999680 -69.600137L529.850592 -431.465801"/>
<path id="coll0_9_626d17cf38a8672e95d9fe7c5ec03334" d="M633.850704 -597.408357L529.850592 -431.465801"/>
<path id="coll0_a_caaeb9620882ae2e06620e94601f0cba" d="M665.852256 -425.640960L529.850592 -431.465801"/>
<path id="coll0_b_fb9a0d215c2434d46fc373dac158dc03" d="M632.250576 -676.950048L529.850592 -431.465801"/>
<path id="coll0_c_8bc2c799b378b7b521a80394cc00b504" d="M529.850592 -431.465801L159.437520 -709.855982"/>
<path id="coll0_d_66b4ab7202fe972a4a575abc55a841c1" d="M529.850592 -431.465801L378.652896 -172.269381"/>
<path id="coll0_e_4af3b0a3cba97eb7fa874d847619200a" d="M529.850592 -431.465801L240.796800 -588.346971"/>
<path id="coll0_f_cdbfdcfb4bb87ed44d4fa93821b8c5ce" d="M529.850592 -431.465801L302.243328 -551.801870"/>
<path id="coll0_10_bab84b1d2c8692e70b271cf1725279f3" d="M529.850592 -431.465801L215.839872 -636.485719"/>
<path id="coll0_11_5ece9b3b0984bdd67f4f89900ae5f725" d="M529.850592 -431.465801L289.444608 -405.404599"/>
</defs>
<defs>
  <clipPath id="p14e7d290d2579d7743299c6cf5744bd9">
<rect x="0.000000" y="0.000000" width="864.000000" height="864.000000"/>
  </clipPath>
</defs><g clip-path="url(#p14e7d290d2579d7743299c6cf5744bd9)"><use style="fill: none; stroke: #000000; stroke-width: 1.000000; stroke-linejoin: round; stroke-linecap: butt;  opacity: 1.000000" xlink:href="#coll0_0_b85ba14c7579f90d69dbad73434c7e13" x="0.000000" y="864.000000"/>
</g><g clip-path="url(#p14e7d290d2579d7743299c6cf5744bd9)"><use style="fill: none; stroke: #000000; stroke-width: 1.000000; stroke-linejoin: round; stroke-linecap: butt;  opacity: 1.000000" xlink:href="#coll0_1_8a394c5c9af0a18781f7297cca87078a" x="0.000000" y="864.000000"/>
</g><g clip-path="url(#p14e7d290d2579d7743299c6cf5744bd9)"><use style="fill: none; stroke: #000000; stroke-width: 1.000000; stroke-linejoin: round; stroke-linecap: butt;  opacity: 1.000000" xlink:href="#coll0_2_4eeaaaaa5b796fc49619849178e5708b" x="0.000000" y="864.000000"/>
</g><g clip-path="url(#p14e7d290d2579d7743299c6cf5744bd9)"><use style="fill: none; stroke: #000000; stroke-width: 1.000000; stroke-linejoin: round; stroke-linecap: butt;  opacity: 1.000000" xlink:href="#coll0_3_dd348cb39409b6af9e1b385f464654d0" x="0.000000" y="864.000000"/>
</g><g clip-path="url(#p14e7d290d2579d7743299c6cf5744bd9)"><use style="fill: none; stroke: #000000; stroke-width: 1.000000; stroke-linejoin: round; stroke-linecap: butt;  opacity: 1.000000" xlink:href="#coll0_4_e39bc96e84656a640fc41e64617e9769" x="0.000000" y="864.000000"/>
</g><g clip-path="url(#p14e7d290d2579d7743299c6cf5744bd9)"><use style="fill: none; stroke: #000000; stroke-width: 1.000000; stroke-linejoin: round; stroke-linecap: butt;  opacity: 1.000000" xlink:href="#coll0_5_94326888587b18684c0331e259b41657" x="0.000000" y="864.000000"/>
</g><g clip-path="url(#p14e7d290d2579d7743299c6cf5744bd9)"><use style="fill: none; stroke: #000000; stroke-width: 1.000000; stroke-linejoin: round; stroke-linecap: butt;  opacity: 1.000000" xlink:href="#coll0_6_10f2113e7fab85fc854ec2a9e1d8d5d1" x="0.000000" y="864.000000"/>
</g><g clip-path="url(#p14e7d290d2579d7743299c6cf5744bd9)"><use style="fill: none; stroke: #000000; stroke-width: 1.000000; stroke-linejoin: round; stroke-linecap: butt;  opacity: 1.000000" xlink:href="#coll0_7_179250e25267093fa9f34923570cbb94" x="0.000000" y="864.000000"/>
</g><g clip-path="url(#p14e7d290d2579d7743299c6cf5744bd9)"><use style="fill: none; stroke: #000000; stroke-width: 1.000000; stroke-linejoin: round; stroke-linecap: butt;  opacity: 1.000000" xlink:href="#coll0_8_ac0a2824bbfef26193241b486ecf5342" x="0.000000" y="864.000000"/>
</g><g clip-path="url(#p14e7d290d2579d7743299c6cf5744bd9)"><use style="fill: none; stroke: #000000; stroke-width: 1.000000; stroke-linejoin: round; stroke-linecap: butt;  opacity: 1.000000" xlink:href="#coll0_9_626d17cf38a8672e95d9fe7c5ec03334" x="0.000000" y="864.000000"/>
</g><g clip-path="url(#p14e7d290d2579d7743299c6cf5744bd9)"><use style="fill: none; stroke: #000000; stroke-width: 1.000000; stroke-linejoin: round; stroke-linecap: butt;  opacity: 1.000000" xlink:href="#coll0_a_caaeb9620882ae2e06620e94601f0cba" x="0.000000" y="864.000000"/>
</g><g clip-path="url(#p14e7d290d2579d7743299c6cf5744bd9)"><use style="fill: none; stroke: #000000; stroke-width: 1.000000; stroke-linejoin: round; stroke-linecap: butt;  opacity: 1.000000" xlink:href="#coll0_b_fb9a0d215c2434d46fc373dac158dc03" x="0.000000" y="864.000000"/>
</g><g clip-path="url(#p14e7d290d2579d7743299c6cf5744bd9)"><use style="fill: none; stroke: #000000; stroke-width: 1.000000; stroke-linejoin: round; stroke-linecap: butt;  opacity: 1.000000" xlink:href="#coll0_c_8bc2c799b378b7b521a80394cc00b504" x="0.000000" y="864.000000"/>
</g><g clip-path="url(#p14e7d290d2579d7743299c6cf5744bd9)"><use style="fill: none; stroke: #000000; stroke-width: 1.000000; stroke-linejoin: round; stroke-linecap: butt;  opacity: 1.000000" xlink:href="#coll0_d_66b4ab7202fe972a4a575abc55a841c1" x="0.000000" y="864.000000"/>
</g><g clip-path="url(#p14e7d290d2579d7743299c6cf5744bd9)"><use style="fill: none; stroke: #000000; stroke-width: 1.000000; stroke-linejoin: round; stroke-linecap: butt;  opacity: 1.000000" xlink:href="#coll0_e_4af3b0a3cba97eb7fa874d847619200a" x="0.000000" y="864.000000"/>
</g><g clip-path="url(#p14e7d290d2579d7743299c6cf5744bd9)"><use style="fill: none; stroke: #000000; stroke-width: 1.000000; stroke-linejoin: round; stroke-linecap: butt;  opacity: 1.000000" xlink:href="#coll0_f_cdbfdcfb4bb87ed44d4fa93821b8c5ce" x="0.000000" y="864.000000"/>
</g><g clip-path="url(#p14e7d290d2579d7743299c6cf5744bd9)"><use style="fill: none; stroke: #000000; stroke-width: 1.000000; stroke-linejoin: round; stroke-linecap: butt;  opacity: 1.000000" xlink:href="#coll0_10_bab84b1d2c8692e70b271cf1725279f3" x="0.000000" y="864.000000"/>
</g><g clip-path="url(#p14e7d290d2579d7743299c6cf5744bd9)"><use style="fill: none; stroke: #000000; stroke-width: 1.000000; stroke-linejoin: round; stroke-linecap: butt;  opacity: 1.000000" xlink:href="#coll0_11_5ece9b3b0984bdd67f4f89900ae5f725" x="0.000000" y="864.000000"/>
</g></g>
<g id="CircleCollection1">
<defs>
<path id="coll1_0_3c9ffdbdf2626b999f46874e855436a9" d="M0.000000 13.911593C3.689398 13.911593 7.228184 12.445780 9.836982 9.836982
C12.445780 7.228184 13.911593 3.689398 13.911593 0.000000
C13.911593 -3.689398 12.445780 -7.228184 9.836982 -9.836982
C7.228184 -12.445780 3.689398 -13.911593 0.000000 -13.911593
C-3.689398 -13.911593 -7.228184 -12.445780 -9.836982 -9.836982
C-12.445780 -7.228184 -13.911593 -3.689398 -13.911593 0.000000
C-13.911593 3.689398 -12.445780 7.228184 -9.836982 9.836982
C-7.228184 12.445780 -3.689398 13.911593 0.000000 13.911593z"/>
<path id="coll1_1_6091e4392027d2f83832e185aaedcfd8" d="M0.000000 13.831278C3.668098 13.831278 7.186453 12.373927 9.780190 9.780190
C12.373927 7.186453 13.831278 3.668098 13.831278 0.000000
C13.831278 -3.668098 12.373927 -7.186453 9.780190 -9.780190
C7.186453 -12.373927 3.668098 -13.831278 0.000000 -13.831278
C-3.668098 -13.831278 -7.186453 -12.373927 -9.780190 -9.780190
C-12.373927 -7.186453 -13.831278 -3.668098 -13.831278 0.000000
C-13.831278 3.668098 -12.373927 7.186453 -9.780190 9.780190
C-7.186453 12.373927 -3.668098 13.831278 0.000000 13.831278z"/>
<path id="coll1_2_ccbd5c764aae45c9a2f05148d8945350" d="M0.000000 6.530967C1.732033 6.530967 3.393359 5.842823 4.618091 4.618091
C5.842823 3.393359 6.530967 1.732033 6.530967 0.000000
C6.530967 -1.732033 5.842823 -3.393359 4.618091 -4.618091
C3.393359 -5.842823 1.732033 -6.530967 0.000000 -6.530967
C-1.732033 -6.530967 -3.393359 -5.842823 -4.618091 -4.618091
C-5.842823 -3.393359 -6.530967 -1.732033 -6.530967 0.000000
C-6.530967 1.732033 -5.842823 3.393359 -4.618091 4.618091
C-3.393359 5.842823 -1.732033 6.530967 0.000000 6.530967z"/>
<path id="coll1_3_8c1b2e5e7e67f9929123733cac1ebf58" d="M0.000000 6.333012C1.679535 6.333012 3.290506 5.665726 4.478116 4.478116
C5.665726 3.290506 6.333012 1.679535 6.333012 0.000000
C6.333012 -1.679535 5.665726 -3.290506 4.478116 -4.478116
C3.290506 -5.665726 1.679535 -6.333012 0.000000 -6.333012
C-1.679535 -6.333012 -3.290506 -5.665726 -4.478116 -4.478116
C-5.665726 -3.290506 -6.333012 -1.679535 -6.333012 0.000000
C-6.333012 1.679535 -5.665726 3.290506 -4.478116 4.478116
C-3.290506 5.665726 -1.679535 6.333012 0.000000 6.333012z"/>
<path id="coll1_4_b106079e4fb83386724cda3bff43811b" d="M0.000000 13.122715C3.480185 13.122715 6.818299 11.740023 9.279161 9.279161
C11.740023 6.818299 13.122715 3.480185 13.122715 0.000000
C13.122715 -3.480185 11.740023 -6.818299 9.279161 -9.279161
C6.818299 -11.740023 3.480185 -13.122715 0.000000 -13.122715
C-3.480185 -13.122715 -6.818299 -11.740023 -9.279161 -9.279161
C-11.740023 -6.818299 -13.122715 -3.480185 -13.122715 0.000000
C-13.122715 3.480185 -11.740023 6.818299 -9.279161 9.279161
C-6.818299 11.740023 -3.480185 13.122715 0.000000 13.122715z"/>
<path id="coll1_5_a2e64ee12307e34442f20358e7a5d526" d="M0.000000 26.672506
C7.073631 26.672506 13.858497 23.862123 18.860310 18.860310
C23.862123 13.858497 26.672506 7.073631 26.672506 0.000000
C26.672506 -7.073631 23.862123 -13.858497 18.860310 -18.860310
C13.858497 -23.862123 7.073631 -26.672506 0.000000 -26.672506
C-7.073631 -26.672506 -13.858497 -23.862123 -18.860310 -18.860310
C-23.862123 -13.858497 -26.672506 -7.073631 -26.672506 0.000000
C-26.672506 7.073631 -23.862123 13.858497 -18.860310 18.860310
C-13.858497 23.862123 -7.073631 26.672506 0.000000 26.672506z"/>
<path id="coll1_6_a56fb5b05608ec1e7b943d2cfdc8f462" d="M0.000000 26.233299
C6.957152 26.233299 13.630294 23.469193 18.549744 18.549744
C23.469193 13.630294 26.233299 6.957152 26.233299 0.000000
C26.233299 -6.957152 23.469193 -13.630294 18.549744 -18.549744
C13.630294 -23.469193 6.957152 -26.233299 0.000000 -26.233299
C-6.957152 -26.233299 -13.630294 -23.469193 -18.549744 -18.549744
C-23.469193 -13.630294 -26.233299 -6.957152 -26.233299 0.000000
C-26.233299 6.957152 -23.469193 13.630294 -18.549744 18.549744
C-13.630294 23.469193 -6.957152 26.233299 0.000000 26.233299z"/>
<path id="coll1_7_5347e3431f03e860f5ce0526220ce2d6" d="M0.000000 31.820493
C8.438893 31.820493 16.533287 28.467685 22.500486 22.500486
C28.467685 16.533287 31.820493 8.438893 31.820493 0.000000
C31.820493 -8.438893 28.467685 -16.533287 22.500486 -22.500486
C16.533287 -28.467685 8.438893 -31.820493 0.000000 -31.820493
C-8.438893 -31.820493 -16.533287 -28.467685 -22.500486 -22.500486
C-28.467685 -16.533287 -31.820493 -8.438893 -31.820493 0.000000
C-31.820493 8.438893 -28.467685 16.533287 -22.500486 22.500486
C-16.533287 28.467685 -8.438893 31.820493 0.000000 31.820493z"/>
<path id="coll1_8_7a4ebfbfa5934cd04dc409f4fe888b5d" d="M0.000000 14.549092
C3.858464 14.549092 7.559415 13.016108 10.287762 10.287762
C13.016108 7.559415 14.549092 3.858464 14.549092 0.000000
C14.549092 -3.858464 13.016108 -7.559415 10.287762 -10.287762
C7.559415 -13.016108 3.858464 -14.549092 0.000000 -14.549092
C-3.858464 -14.549092 -7.559415 -13.016108 -10.287762 -10.287762
C-13.016108 -7.559415 -14.549092 -3.858464 -14.549092 0.000000
C-14.549092 3.858464 -13.016108 7.559415 -10.287762 10.287762
C-7.559415 13.016108 -3.858464 14.549092 0.000000 14.549092z"/>
<path id="coll1_9_15fb62559158c3525e593ea667996dda" d="M0.000000 22.511094
C5.970012 22.511094 11.696311 20.139183 15.917747 15.917747
C20.139183 11.696311 22.511094 5.970012 22.511094 0.000000
C22.511094 -5.970012 20.139183 -11.696311 15.917747 -15.917747
C11.696311 -20.139183 5.970012 -22.511094 0.000000 -22.511094
C-5.970012 -22.511094 -11.696311 -20.139183 -15.917747 -15.917747
C-20.139183 -11.696311 -22.511094 -5.970012 -22.511094 0.000000
C-22.511094 5.970012 -20.139183 11.696311 -15.917747 15.917747
C-11.696311 20.139183 -5.970012 22.511094 0.000000 22.511094z"/>
<path id="coll1_a_cd0bddc7d7ac3f1b8bc46cf000abe505" d="M0.000000 9.885400C2.621639 9.885400 5.136255 8.843812 6.990033 6.990033
C8.843812 5.136255 9.885400 2.621639 9.885400 0.000000
C9.885400 -2.621639 8.843812 -5.136255 6.990033 -6.990033
C5.136255 -8.843812 2.621639 -9.885400 0.000000 -9.885400
C-2.621639 -9.885400 -5.136255 -8.843812 -6.990033 -6.990033
C-8.843812 -5.136255 -9.885400 -2.621639 -9.885400 0.000000
C-9.885400 2.621639 -8.843812 5.136255 -6.990033 6.990033
C-5.136255 8.843812 -2.621639 9.885400 0.000000 9.885400z"/>
<path id="coll1_b_1acc5e888b7ccea3be9dac919764dbef" d="M0.000000 16.622063
C4.408223 16.622063 8.636489 14.870658 11.753574 11.753574
C14.870658 8.636489 16.622063 4.408223 16.622063 0.000000
C16.622063 -4.408223 14.870658 -8.636489 11.753574 -11.753574
C8.636489 -14.870658 4.408223 -16.622063 0.000000 -16.622063
C-4.408223 -16.622063 -8.636489 -14.870658 -11.753574 -11.753574
C-14.870658 -8.636489 -16.622063 -4.408223 -16.622063 0.000000
C-16.622063 4.408223 -14.870658 8.636489 -11.753574 11.753574
C-8.636489 14.870658 -4.408223 16.622063 0.000000 16.622063z"/>
<path id="coll1_c_7d61cf834a76034ff71a82a98ea7329c" d="M0.000000 108.543097
C28.785966 108.543097 56.396808 97.106311 76.751560 76.751560
C97.106311 56.396808 108.543097 28.785966 108.543097 0.000000
C108.543097 -28.785966 97.106311 -56.396808 76.751560 -76.751560
C56.396808 -97.106311 28.785966 -108.543097 0.000000 -108.543097
C-28.785966 -108.543097 -56.396808 -97.106311 -76.751560 -76.751560
C-97.106311 -56.396808 -108.543097 -28.785966 -108.543097 0.000000
C-108.543097 28.785966 -97.106311 56.396808 -76.751560 76.751560
C-56.396808 97.106311 -28.785966 108.543097 0.000000 108.543097z"/>
<path id="coll1_d_76b7b03fb081d016e13c3e9408bee279" d="M0.000000 27.500987
C7.293347 27.500987 14.288959 24.603310 19.446134 19.446134
C24.603310 14.288959 27.500987 7.293347 27.500987 0.000000
C27.500987 -7.293347 24.603310 -14.288959 19.446134 -19.446134
C14.288959 -24.603310 7.293347 -27.500987 0.000000 -27.500987
C-7.293347 -27.500987 -14.288959 -24.603310 -19.446134 -19.446134
C-24.603310 -14.288959 -27.500987 -7.293347 -27.500987 0.000000
C-27.500987 7.293347 -24.603310 14.288959 -19.446134 19.446134
C-14.288959 24.603310 -7.293347 27.500987 0.000000 27.500987z"/>
<path id="coll1_e_2f5f2ff384dc02530c2c0b5781596c16" d="M0.000000 36.081677
C9.568973 36.081677 18.747313 32.279884 25.513599 25.513599
C32.279884 18.747313 36.081677 9.568973 36.081677 0.000000
C36.081677 -9.568973 32.279884 -18.747313 25.513599 -25.513599
C18.747313 -32.279884 9.568973 -36.081677 0.000000 -36.081677
C-9.568973 -36.081677 -18.747313 -32.279884 -25.513599 -25.513599
C-32.279884 -18.747313 -36.081677 -9.568973 -36.081677 0.000000
C-36.081677 9.568973 -32.279884 18.747313 -25.513599 25.513599
C-18.747313 32.279884 -9.568973 36.081677 0.000000 36.081677z"/>
<path id="coll1_f_b86bd4b101f2de3068ecac9f133e4904" d="M0.000000 5.232079C1.387564 5.232079 2.718483 4.680794 3.699639 3.699639
C4.680794 2.718483 5.232079 1.387564 5.232079 0.000000
C5.232079 -1.387564 4.680794 -2.718483 3.699639 -3.699639
C2.718483 -4.680794 1.387564 -5.232079 0.000000 -5.232079
C-1.387564 -5.232079 -2.718483 -4.680794 -3.699639 -3.699639
C-4.680794 -2.718483 -5.232079 -1.387564 -5.232079 0.000000
C-5.232079 1.387564 -4.680794 2.718483 -3.699639 3.699639
C-2.718483 4.680794 -1.387564 5.232079 0.000000 5.232079z"/>
<path id="coll1_10_0558211d1f93402fc20589234ec0fac1" d="M0.000000 27.180825
C7.208439 27.180825 14.122610 24.316882 19.219746 19.219746
C24.316882 14.122610 27.180825 7.208439 27.180825 0.000000
C27.180825 -7.208439 24.316882 -14.122610 19.219746 -19.219746
C14.122610 -24.316882 7.208439 -27.180825 0.000000 -27.180825
C-7.208439 -27.180825 -14.122610 -24.316882 -19.219746 -19.219746
C-24.316882 -14.122610 -27.180825 -7.208439 -27.180825 0.000000
C-27.180825 7.208439 -24.316882 14.122610 -19.219746 19.219746
C-14.122610 24.316882 -7.208439 27.180825 0.000000 27.180825z"/>
<path id="coll1_11_e2069a8aa5883927b26ac97895192b86" d="M0.000000 12.640869C3.352398 12.640869 6.567941 11.308947 8.938444 8.938444
C11.308947 6.567941 12.640869 3.352398 12.640869 0.000000
C12.640869 -3.352398 11.308947 -6.567941 8.938444 -8.938444
C6.567941 -11.308947 3.352398 -12.640869 0.000000 -12.640869
C-3.352398 -12.640869 -6.567941 -11.308947 -8.938444 -8.938444
C-11.308947 -6.567941 -12.640869 -3.352398 -12.640869 0.000000
C-12.640869 3.352398 -11.308947 6.567941 -8.938444 8.938444
C-6.567941 11.308947 -3.352398 12.640869 0.000000 12.640869z"/>
<path id="coll1_12_e171d1b65a26c45bce3be96cc2b53115" d="M0.000000 16.535664
C4.385309 16.535664 8.591598 14.793362 11.692480 11.692480
C14.793362 8.591598 16.535664 4.385309 16.535664 0.000000
C16.535664 -4.385309 14.793362 -8.591598 11.692480 -11.692480
C8.591598 -14.793362 4.385309 -16.535664 0.000000 -16.535664
C-4.385309 -16.535664 -8.591598 -14.793362 -11.692480 -11.692480
C-14.793362 -8.591598 -16.535664 -4.385309 -16.535664 0.000000
C-16.535664 4.385309 -14.793362 8.591598 -11.692480 11.692480
C-8.591598 14.793362 -4.385309 16.535664 0.000000 16.535664z"/>
</defs>
<g clip-path="url(#p14e7d290d2579d7743299c6cf5744bd9)"><use style="fill: #f7fbff; stroke: #000000; stroke-width: 1.000000; stroke-linejoin: round; stroke-linecap: butt;  opacity: 1.000000" xlink:href="#coll1_0_3c9ffdbdf2626b999f46874e855436a9" x="669.851424" y="380.074834"/>
</g><g clip-path="url(#p14e7d290d2579d7743299c6cf5744bd9)"><use style="fill: #ecf4fb; stroke: #000000; stroke-width: 1.000000; stroke-linejoin: round; stroke-linecap: butt;  opacity: 1.000000" xlink:href="#coll1_1_6091e4392027d2f83832e185aaedcfd8" x="267.444432" y="539.508014"/>
</g><g clip-path="url(#p14e7d290d2579d7743299c6cf5744bd9)"><use style="fill: #e1edf8; stroke: #000000; stroke-width: 1.000000; stroke-linejoin: round; stroke-linecap: butt;  opacity: 1.000000" xlink:href="#coll1_2_ccbd5c764aae45c9a2f05148d8945350" x="422.395200" y="205.027200"/>
</g><g clip-path="url(#p14e7d290d2579d7743299c6cf5744bd9)"><use style="fill: #d6e6f4; stroke: #000000; stroke-width: 1.000000; stroke-linejoin: round; stroke-linecap: butt;  opacity: 1.000000" xlink:href="#coll1_3_8c1b2e5e7e67f9929123733cac1ebf58" x="636.655680" y="811.040133"/>
</g><g clip-path="url(#p14e7d290d2579d7743299c6cf5744bd9)"><use style="fill: #ccdff1; stroke: #000000; stroke-width: 1.000000; stroke-linejoin: round; stroke-linecap: butt;  opacity: 1.000000" xlink:href="#coll1_4_b106079e4fb83386724cda3bff43811b" x="694.251936" y="395.502295"/>
</g><g clip-path="url(#p14e7d290d2579d7743299c6cf5744bd9)"><use style="fill: #bdd7ec; stroke: #000000; stroke-width: 1.000000; stroke-linejoin: round; stroke-linecap: butt;  opacity: 1.000000" xlink:href="#coll1_5_a2e64ee12307e34442f20358e7a5d526" x="775.054224" y="494.926107"/>
</g><g clip-path="url(#p14e7d290d2579d7743299c6cf5744bd9)"><use style="fill: #abd0e6; stroke: #000000; stroke-width: 1.000000; stroke-linejoin: round; stroke-linecap: butt;  opacity: 1.000000" xlink:href="#coll1_6_a56fb5b05608ec1e7b943d2cfdc8f462" x="714.252096" y="349.559835"/>
</g><g clip-path="url(#p14e7d290d2579d7743299c6cf5744bd9)"><use style="fill: #99c7e0; stroke: #000000; stroke-width: 1.000000; stroke-linejoin: round; stroke-linecap: butt;  opacity: 1.000000" xlink:href="#coll1_7_5347e3431f03e860f5ce0526220ce2d6" x="223.042176" y="446.939547"/>
</g><g clip-path="url(#p14e7d290d2579d7743299c6cf5744bd9)"><use style="fill: #82bbdb; stroke: #000000; stroke-width: 1.000000; stroke-linejoin: round; stroke-linecap: butt;  opacity: 1.000000" xlink:href="#coll1_8_7a4ebfbfa5934cd04dc409f4fe888b5d" x="481.999680" y="794.399863"/>
</g><g clip-path="url(#p14e7d290d2579d7743299c6cf5744bd9)"><use style="fill: #6aaed6; stroke: #000000; stroke-width: 1.000000; stroke-linejoin: round; stroke-linecap: butt;  opacity: 1.000000" xlink:href="#coll1_9_15fb62559158c3525e593ea667996dda" x="633.850704" y="266.591643"/>
</g><g clip-path="url(#p14e7d290d2579d7743299c6cf5744bd9)"><use style="fill: #58a1cf; stroke: #000000; stroke-width: 1.000000; stroke-linejoin: round; stroke-linecap: butt;  opacity: 1.000000" xlink:href="#coll1_a_cd0bddc7d7ac3f1b8bc46cf000abe505" x="665.852256" y="438.359040"/>
</g><g clip-path="url(#p14e7d290d2579d7743299c6cf5744bd9)"><use style="fill: #4695c8; stroke: #000000; stroke-width: 1.000000; stroke-linejoin: round; stroke-linecap: butt;  opacity: 1.000000" xlink:href="#coll1_b_1acc5e888b7ccea3be9dac919764dbef" x="632.250576" y="187.049952"/>
</g><g clip-path="url(#p14e7d290d2579d7743299c6cf5744bd9)"><use style="fill: #3787c0; stroke: #000000; stroke-width: 1.000000; stroke-linejoin: round; stroke-linecap: butt;  opacity: 1.000000" xlink:href="#coll1_c_7d61cf834a76034ff71a82a98ea7329c" x="529.850592" y="432.534199"/>
</g><g clip-path="url(#p14e7d290d2579d7743299c6cf5744bd9)"><use style="fill: #2979b9; stroke: #000000; stroke-width: 1.000000; stroke-linejoin: round; stroke-linecap: butt;  opacity: 1.000000" xlink:href="#coll1_d_76b7b03fb081d016e13c3e9408bee279" x="159.437520" y="154.144018"/>
</g><g clip-path="url(#p14e7d290d2579d7743299c6cf5744bd9)"><use style="fill: #1b69af; stroke: #000000; stroke-width: 1.000000; stroke-linejoin: round; stroke-linecap: butt;  opacity: 1.000000" xlink:href="#coll1_e_2f5f2ff384dc02530c2c0b5781596c16" x="378.652896" y="691.730619"/>
</g><g clip-path="url(#p14e7d290d2579d7743299c6cf5744bd9)"><use style="fill: #105ba4; stroke: #000000; stroke-width: 1.000000; stroke-linejoin: round; stroke-linecap: butt;  opacity: 1.000000" xlink:href="#coll1_f_b86bd4b101f2de3068ecac9f133e4904" x="240.796800" y="275.653029"/>
</g><g clip-path="url(#p14e7d290d2579d7743299c6cf5744bd9)"><use style="fill: #084d96; stroke: #000000; stroke-width: 1.000000; stroke-linejoin: round; stroke-linecap: butt;  opacity: 1.000000" xlink:href="#coll1_10_0558211d1f93402fc20589234ec0fac1" x="302.243328" y="312.198130"/>
</g><g clip-path="url(#p14e7d290d2579d7743299c6cf5744bd9)"><use style="fill: #083e81; stroke: #000000; stroke-width: 1.000000; stroke-linejoin: round; stroke-linecap: butt;  opacity: 1.000000" xlink:href="#coll1_11_e2069a8aa5883927b26ac97895192b86" x="215.839872" y="227.514281"/>
</g><g clip-path="url(#p14e7d290d2579d7743299c6cf5744bd9)"><use style="fill: #08306b; stroke: #000000; stroke-width: 1.000000; stroke-linejoin: round; stroke-linecap: butt;  opacity: 1.000000" xlink:href="#coll1_12_e171d1b65a26c45bce3be96cc2b53115" x="289.444608" y="458.595401"/>
</g></g>
</g>
</g>
</svg>
