<?xml version="1.0" encoding="utf-8" standalone="no"?>
<!DOCTYPE svg PUBLIC "-//W3C//DTD SVG 1.1//EN"
  "http://www.w3.org/Graphics/SVG/1.1/DTD/svg11.dtd">
<!-- Created with matplotlib (http://matplotlib.sourceforge.net/) -->
<svg height="864pt" version="1.1" viewBox="0 0 864 864" width="864pt" xmlns="http://www.w3.org/2000/svg" xmlns:xlink="http://www.w3.org/1999/xlink">
 <defs>
  <style type="text/css">
*{stroke-linecap:square;stroke-linejoin:round;}
  </style>
 </defs>
 <g id="figure_1">
  <g id="patch_1">
   <path d="
M0 864
L864 864
L864 0
L0 0
z
" style="fill:#ffffff;"/>
  </g>
  <g id="axes_1">
   <g id="LineCollection_1">
    <defs>
     <path d="
M657.994 -535.318
L537.253 -477.678" id="C0_0_f92fd65474"/>
     <path d="
M281.216 -395.167
L537.253 -477.678" id="C0_1_56c91b08fb"/>
     <path d="
M431.412 -685.883
L537.253 -477.678" id="C0_2_9a1b81dfe0"/>
     <path d="
M636.432 -155.78
L537.253 -477.678" id="C0_3_198bf25e29"/>
     <path d="
M690.631 -524.936
L537.253 -477.678" id="C0_4_4ac71f294b"/>
     <path d="
M772.118 -437.45
L537.253 -477.678" id="C0_5_cd4006bf62"/>
     <path d="
M713.846 -560.339
L537.253 -477.678" id="C0_6_333a6006f3"/>
     <path d="
M229.012 -472.472
L537.253 -477.678" id="C0_7_b2d4961073"/>
     <path d="
M485.971 -173.324
L537.253 -477.678" id="C0_8_54825c5508"/>
     <path d="
M643.029 -632.561
L537.253 -477.678" id="C0_9_526a4e9250"/>
     <path d="
M667.623 -480.684
L537.253 -477.678" id="C0_a_40020225c9"/>
     <path d="
M629.778 -697.439
L537.253 -477.678" id="C0_b_29db689cc7"/>
     <path d="
M537.253 -477.678
L164.554 -729.1" id="C0_c_291b20058c"/>
     <path d="
M537.253 -477.678
L389.721 -259.483" id="C0_d_593707eda6"/>
     <path d="
M537.253 -477.678
L238.181 -623.727" id="C0_e_21fa646bb1"/>
     <path d="
M537.253 -477.678
L298.806 -591.609" id="C0_f_d4249e9b1e"/>
     <path d="
M537.253 -477.678
L217.187 -676.393" id="C0_10_358ae82ed5"/>
     <path d="
M537.253 -477.678
L295.112 -465.084" id="C0_11_b20a33fe41"/>
    </defs>
    <defs>
     <clipPath id="p50a717da45">
      <rect height="864.0" width="864.0" x="0.0" y="0.0"/>
     </clipPath>
    </defs>
    <g clip-path="url(#p50a717da45)">
     <use style="fill:none;stroke:#000000;stroke-linecap:butt;" x="0" xlink:href="#C0_0_f92fd65474" y="864.0"/>
    </g>
    <g clip-path="url(#p50a717da45)">
     <use style="fill:none;stroke:#000000;stroke-linecap:butt;" x="0" xlink:href="#C0_1_56c91b08fb" y="864.0"/>
    </g>
    <g clip-path="url(#p50a717da45)">
     <use style="fill:none;stroke:#000000;stroke-linecap:butt;" x="0" xlink:href="#C0_2_9a1b81dfe0" y="864.0"/>
    </g>
    <g clip-path="url(#p50a717da45)">
     <use style="fill:none;stroke:#000000;stroke-linecap:butt;" x="0" xlink:href="#C0_3_198bf25e29" y="864.0"/>
    </g>
    <g clip-path="url(#p50a717da45)">
     <use style="fill:none;stroke:#000000;stroke-linecap:butt;" x="0" xlink:href="#C0_4_4ac71f294b" y="864.0"/>
    </g>
    <g clip-path="url(#p50a717da45)">
     <use style="fill:none;stroke:#000000;stroke-linecap:butt;" x="0" xlink:href="#C0_5_cd4006bf62" y="864.0"/>
    </g>
    <g clip-path="url(#p50a717da45)">
     <use style="fill:none;stroke:#000000;stroke-linecap:butt;" x="0" xlink:href="#C0_6_333a6006f3" y="864.0"/>
    </g>
    <g clip-path="url(#p50a717da45)">
     <use style="fill:none;stroke:#000000;stroke-linecap:butt;" x="0" xlink:href="#C0_7_b2d4961073" y="864.0"/>
    </g>
    <g clip-path="url(#p50a717da45)">
     <use style="fill:none;stroke:#000000;stroke-linecap:butt;" x="0" xlink:href="#C0_8_54825c5508" y="864.0"/>
    </g>
    <g clip-path="url(#p50a717da45)">
     <use style="fill:none;stroke:#000000;stroke-linecap:butt;" x="0" xlink:href="#C0_9_526a4e9250" y="864.0"/>
    </g>
    <g clip-path="url(#p50a717da45)">
     <use style="fill:none;stroke:#000000;stroke-linecap:butt;" x="0" xlink:href="#C0_a_40020225c9" y="864.0"/>
    </g>
    <g clip-path="url(#p50a717da45)">
     <use style="fill:none;stroke:#000000;stroke-linecap:butt;" x="0" xlink:href="#C0_b_29db689cc7" y="864.0"/>
    </g>
    <g clip-path="url(#p50a717da45)">
     <use style="fill:none;stroke:#000000;stroke-linecap:butt;" x="0" xlink:href="#C0_c_291b20058c" y="864.0"/>
    </g>
    <g clip-path="url(#p50a717da45)">
     <use style="fill:none;stroke:#000000;stroke-linecap:butt;" x="0" xlink:href="#C0_d_593707eda6" y="864.0"/>
    </g>
    <g clip-path="url(#p50a717da45)">
     <use style="fill:none;stroke:#000000;stroke-linecap:butt;" x="0" xlink:href="#C0_e_21fa646bb1" y="864.0"/>
    </g>
    <g clip-path="url(#p50a717da45)">
     <use style="fill:none;stroke:#000000;stroke-linecap:butt;" x="0" xlink:href="#C0_f_d4249e9b1e" y="864.0"/>
    </g>
    <g clip-path="url(#p50a717da45)">
     <use style="fill:none;stroke:#000000;stroke-linecap:butt;" x="0" xlink:href="#C0_10_358ae82ed5" y="864.0"/>
    </g>
    <g clip-path="url(#p50a717da45)">
     <use style="fill:none;stroke:#000000;stroke-linecap:butt;" x="0" xlink:href="#C0_11_b20a33fe41" y="864.0"/>
    </g>
   </g>
   <g id="PathCollection_1">
    <defs>
     <path d="
M0 12.3288
C3.26964 12.3288 6.40581 11.0298 8.7178 8.7178
C11.0298 6.40581 12.3288 3.26964 12.3288 0
C12.3288 -3.26964 11.0298 -6.40581 8.7178 -8.7178
C6.40581 -11.0298 3.26964 -12.3288 0 -12.3288
C-3.26964 -12.3288 -6.40581 -11.0298 -8.7178 -8.7178
C-11.0298 -6.40581 -12.3288 -3.26964 -12.3288 0
C-12.3288 3.26964 -11.0298 6.40581 -8.7178 8.7178
C-6.40581 11.0298 -3.26964 12.3288 0 12.3288
z
" id="C1_0_31d37cf53c"/>
     <path d="
M0 12.2577
C3.25077 12.2577 6.36883 10.9661 8.66747 8.66747
C10.9661 6.36883 12.2577 3.25077 12.2577 0
C12.2577 -3.25077 10.9661 -6.36883 8.66747 -8.66747
C6.36883 -10.9661 3.25077 -12.2577 0 -12.2577
C-3.25077 -12.2577 -6.36883 -10.9661 -8.66747 -8.66747
C-10.9661 -6.36883 -12.2577 -3.25077 -12.2577 0
C-12.2577 3.25077 -10.9661 6.36883 -8.66747 8.66747
C-6.36883 10.9661 -3.25077 12.2577 0 12.2577
z
" id="C1_1_c72d4e9f18"/>
     <path d="
M0 5.78792
C1.53497 5.78792 3.00729 5.17807 4.09268 4.09268
C5.17807 3.00729 5.78792 1.53497 5.78792 0
C5.78792 -1.53497 5.17807 -3.00729 4.09268 -4.09268
C3.00729 -5.17807 1.53497 -5.78792 0 -5.78792
C-1.53497 -5.78792 -3.00729 -5.17807 -4.09268 -4.09268
C-5.17807 -3.00729 -5.78792 -1.53497 -5.78792 0
C-5.78792 1.53497 -5.17807 3.00729 -4.09268 4.09268
C-3.00729 5.17807 -1.53497 5.78792 0 5.78792
z
" id="C1_2_cc2d69bcaa"/>
     <path d="
M0 5.61249
C1.48845 5.61249 2.91613 5.02112 3.96863 3.96863
C5.02112 2.91613 5.61249 1.48845 5.61249 0
C5.61249 -1.48845 5.02112 -2.91613 3.96863 -3.96863
C2.91613 -5.02112 1.48845 -5.61249 0 -5.61249
C-1.48845 -5.61249 -2.91613 -5.02112 -3.96863 -3.96863
C-5.02112 -2.91613 -5.61249 -1.48845 -5.61249 0
C-5.61249 1.48845 -5.02112 2.91613 -3.96863 3.96863
C-2.91613 5.02112 -1.48845 5.61249 0 5.61249
z
" id="C1_3_9d82e7b426"/>
     <path d="
M0 11.6297
C3.08423 11.6297 6.04256 10.4043 8.22344 8.22344
C10.4043 6.04256 11.6297 3.08423 11.6297 0
C11.6297 -3.08423 10.4043 -6.04256 8.22344 -8.22344
C6.04256 -10.4043 3.08423 -11.6297 0 -11.6297
C-3.08423 -11.6297 -6.04256 -10.4043 -8.22344 -8.22344
C-10.4043 -6.04256 -11.6297 -3.08423 -11.6297 0
C-11.6297 3.08423 -10.4043 6.04256 -8.22344 8.22344
C-6.04256 10.4043 -3.08423 11.6297 0 11.6297
z
" id="C1_4_05652e6539"/>
     <path d="
M0 23.6379
C6.26884 23.6379 12.2818 21.1473 16.7145 16.7145
C21.1473 12.2818 23.6379 6.26884 23.6379 0
C23.6379 -6.26884 21.1473 -12.2818 16.7145 -16.7145
C12.2818 -21.1473 6.26884 -23.6379 0 -23.6379
C-6.26884 -23.6379 -12.2818 -21.1473 -16.7145 -16.7145
C-21.1473 -12.2818 -23.6379 -6.26884 -23.6379 0
C-23.6379 6.26884 -21.1473 12.2818 -16.7145 16.7145
C-12.2818 21.1473 -6.26884 23.6379 0 23.6379
z
" id="C1_5_ee52e4d564"/>
     <path d="
M0 23.2487
C6.16562 23.2487 12.0795 20.799 16.4393 16.4393
C20.799 12.0795 23.2487 6.16562 23.2487 0
C23.2487 -6.16562 20.799 -12.0795 16.4393 -16.4393
C12.0795 -20.799 6.16562 -23.2487 0 -23.2487
C-6.16562 -23.2487 -12.0795 -20.799 -16.4393 -16.4393
C-20.799 -12.0795 -23.2487 -6.16562 -23.2487 0
C-23.2487 6.16562 -20.799 12.0795 -16.4393 16.4393
C-12.0795 20.799 -6.16562 23.2487 0 23.2487
z
" id="C1_6_3aea018e59"/>
     <path d="
M0 28.2002
C7.47877 28.2002 14.6522 25.2288 19.9405 19.9405
C25.2288 14.6522 28.2002 7.47877 28.2002 0
C28.2002 -7.47877 25.2288 -14.6522 19.9405 -19.9405
C14.6522 -25.2288 7.47877 -28.2002 0 -28.2002
C-7.47877 -28.2002 -14.6522 -25.2288 -19.9405 -19.9405
C-25.2288 -14.6522 -28.2002 -7.47877 -28.2002 0
C-28.2002 7.47877 -25.2288 14.6522 -19.9405 19.9405
C-14.6522 25.2288 -7.47877 28.2002 0 28.2002
z
" id="C1_7_b2a65f438b"/>
     <path d="
M0 12.8938
C3.41947 12.8938 6.69936 11.5352 9.11729 9.11729
C11.5352 6.69936 12.8938 3.41947 12.8938 0
C12.8938 -3.41947 11.5352 -6.69936 9.11729 -9.11729
C6.69936 -11.5352 3.41947 -12.8938 0 -12.8938
C-3.41947 -12.8938 -6.69936 -11.5352 -9.11729 -9.11729
C-11.5352 -6.69936 -12.8938 -3.41947 -12.8938 0
C-12.8938 3.41947 -11.5352 6.69936 -9.11729 9.11729
C-6.69936 11.5352 -3.41947 12.8938 0 12.8938
z
" id="C1_8_433d750260"/>
     <path d="
M0 19.9499
C5.29079 19.9499 10.3656 17.8479 14.1067 14.1067
C17.8479 10.3656 19.9499 5.29079 19.9499 0
C19.9499 -5.29079 17.8479 -10.3656 14.1067 -14.1067
C10.3656 -17.8479 5.29079 -19.9499 0 -19.9499
C-5.29079 -19.9499 -10.3656 -17.8479 -14.1067 -14.1067
C-17.8479 -10.3656 -19.9499 -5.29079 -19.9499 0
C-19.9499 5.29079 -17.8479 10.3656 -14.1067 14.1067
C-10.3656 17.8479 -5.29079 19.9499 0 19.9499
z
" id="C1_9_340d2bc20b"/>
     <path d="
M0 8.76071
C2.32337 8.76071 4.55189 7.83762 6.19476 6.19476
C7.83762 4.55189 8.76071 2.32337 8.76071 0
C8.76071 -2.32337 7.83762 -4.55189 6.19476 -6.19476
C4.55189 -7.83762 2.32337 -8.76071 0 -8.76071
C-2.32337 -8.76071 -4.55189 -7.83762 -6.19476 -6.19476
C-7.83762 -4.55189 -8.76071 -2.32337 -8.76071 0
C-8.76071 2.32337 -7.83762 4.55189 -6.19476 6.19476
C-4.55189 7.83762 -2.32337 8.76071 0 8.76071
z
" id="C1_a_a72a07b2a1"/>
     <path d="
M0 14.7309
C3.90669 14.7309 7.65389 13.1788 10.4163 10.4163
C13.1788 7.65389 14.7309 3.90669 14.7309 0
C14.7309 -3.90669 13.1788 -7.65389 10.4163 -10.4163
C7.65389 -13.1788 3.90669 -14.7309 0 -14.7309
C-3.90669 -14.7309 -7.65389 -13.1788 -10.4163 -10.4163
C-13.1788 -7.65389 -14.7309 -3.90669 -14.7309 0
C-14.7309 3.90669 -13.1788 7.65389 -10.4163 10.4163
C-7.65389 13.1788 -3.90669 14.7309 0 14.7309
z
" id="C1_b_d88ccebe84"/>
     <path d="
M0 96.1938
C25.5109 96.1938 49.9804 86.0582 68.0193 68.0193
C86.0582 49.9804 96.1938 25.5109 96.1938 0
C96.1938 -25.5109 86.0582 -49.9804 68.0193 -68.0193
C49.9804 -86.0582 25.5109 -96.1938 0 -96.1938
C-25.5109 -96.1938 -49.9804 -86.0582 -68.0193 -68.0193
C-86.0582 -49.9804 -96.1938 -25.5109 -96.1938 0
C-96.1938 25.5109 -86.0582 49.9804 -68.0193 68.0193
C-49.9804 86.0582 -25.5109 96.1938 0 96.1938
z
" id="C1_c_bfbdbd5fa2"/>
     <path d="
M0 24.3721
C6.46356 24.3721 12.6633 21.8041 17.2337 17.2337
C21.8041 12.6633 24.3721 6.46356 24.3721 0
C24.3721 -6.46356 21.8041 -12.6633 17.2337 -17.2337
C12.6633 -21.8041 6.46356 -24.3721 0 -24.3721
C-6.46356 -24.3721 -12.6633 -21.8041 -17.2337 -17.2337
C-21.8041 -12.6633 -24.3721 -6.46356 -24.3721 0
C-24.3721 6.46356 -21.8041 12.6633 -17.2337 17.2337
C-12.6633 21.8041 -6.46356 24.3721 0 24.3721
z
" id="C1_d_4f7c4d1cce"/>
     <path d="
M0 31.9766
C8.48028 31.9766 16.6144 28.6073 22.6108 22.6108
C28.6073 16.6144 31.9766 8.48028 31.9766 0
C31.9766 -8.48028 28.6073 -16.6144 22.6108 -22.6108
C16.6144 -28.6073 8.48028 -31.9766 0 -31.9766
C-8.48028 -31.9766 -16.6144 -28.6073 -22.6108 -22.6108
C-28.6073 -16.6144 -31.9766 -8.48028 -31.9766 0
C-31.9766 8.48028 -28.6073 16.6144 -22.6108 22.6108
C-16.6144 28.6073 -8.48028 31.9766 0 31.9766
z
" id="C1_e_6a53aec344"/>
     <path d="
M0 4.63681
C1.2297 4.63681 2.40919 4.14825 3.27872 3.27872
C4.14825 2.40919 4.63681 1.2297 4.63681 0
C4.63681 -1.2297 4.14825 -2.40919 3.27872 -3.27872
C2.40919 -4.14825 1.2297 -4.63681 0 -4.63681
C-1.2297 -4.63681 -2.40919 -4.14825 -3.27872 -3.27872
C-4.14825 -2.40919 -4.63681 -1.2297 -4.63681 0
C-4.63681 1.2297 -4.14825 2.40919 -3.27872 3.27872
C-2.40919 4.14825 -1.2297 4.63681 0 4.63681
z
" id="C1_f_3fdbf888b8"/>
     <path d="
M0 24.0884
C6.38831 24.0884 12.5158 21.5503 17.0331 17.0331
C21.5503 12.5158 24.0884 6.38831 24.0884 0
C24.0884 -6.38831 21.5503 -12.5158 17.0331 -17.0331
C12.5158 -21.5503 6.38831 -24.0884 0 -24.0884
C-6.38831 -24.0884 -12.5158 -21.5503 -17.0331 -17.0331
C-21.5503 -12.5158 -24.0884 -6.38831 -24.0884 0
C-24.0884 6.38831 -21.5503 12.5158 -17.0331 17.0331
C-12.5158 21.5503 -6.38831 24.0884 0 24.0884
z
" id="C1_10_a955ad24ec"/>
     <path d="
M0 11.2027
C2.97099 11.2027 5.82069 10.0223 7.92149 7.92149
C10.0223 5.82069 11.2027 2.97099 11.2027 0
C11.2027 -2.97099 10.0223 -5.82069 7.92149 -7.92149
C5.82069 -10.0223 2.97099 -11.2027 0 -11.2027
C-2.97099 -11.2027 -5.82069 -10.0223 -7.92149 -7.92149
C-10.0223 -5.82069 -11.2027 -2.97099 -11.2027 0
C-11.2027 2.97099 -10.0223 5.82069 -7.92149 7.92149
C-5.82069 10.0223 -2.97099 11.2027 0 11.2027
z
" id="C1_11_b1c6992a15"/>
     <path d="
M0 14.6544
C3.88638 14.6544 7.61411 13.1103 10.3622 10.3622
C13.1103 7.61411 14.6544 3.88638 14.6544 0
C14.6544 -3.88638 13.1103 -7.61411 10.3622 -10.3622
C7.61411 -13.1103 3.88638 -14.6544 0 -14.6544
C-3.88638 -14.6544 -7.61411 -13.1103 -10.3622 -10.3622
C-13.1103 -7.61411 -14.6544 -3.88638 -14.6544 0
C-14.6544 3.88638 -13.1103 7.61411 -10.3622 10.3622
C-7.61411 13.1103 -3.88638 14.6544 0 14.6544
z
" id="C1_12_fd6f815905"/>
    </defs>
    <g clip-path="url(#p50a717da45)">
     <use style="fill:#ffffff;stroke:#000000;stroke-linecap:butt;" x="657.994464" xlink:href="#C1_0_31d37cf53c" y="328.6818"/>
    </g>
    <g clip-path="url(#p50a717da45)">
     <use style="fill:#ffffff;stroke:#000000;stroke-linecap:butt;" x="281.216016" xlink:href="#C1_1_c72d4e9f18" y="468.833184"/>
    </g>
    <g clip-path="url(#p50a717da45)">
     <use style="fill:#ffffff;stroke:#000000;stroke-linecap:butt;" x="431.41176" xlink:href="#C1_2_cc2d69bcaa" y="178.11738"/>
    </g>
    <g clip-path="url(#p50a717da45)">
     <use style="fill:#ffffff;stroke:#000000;stroke-linecap:butt;" x="636.431904" xlink:href="#C1_3_9d82e7b426" y="708.220044"/>
    </g>
    <g clip-path="url(#p50a717da45)">
     <use style="fill:#ffffff;stroke:#000000;stroke-linecap:butt;" x="690.630624" xlink:href="#C1_4_05652e6539" y="339.064488"/>
    </g>
    <g clip-path="url(#p50a717da45)">
     <use style="fill:#ffffff;stroke:#000000;stroke-linecap:butt;" x="772.117632" xlink:href="#C1_5_ee52e4d564" y="426.550212"/>
    </g>
    <g clip-path="url(#p50a717da45)">
     <use style="fill:#0052a5;stroke:#000000;stroke-linecap:butt;" x="713.846304" xlink:href="#C1_6_3aea018e59" y="303.660576"/>
    </g>
    <g clip-path="url(#p50a717da45)">
     <use style="fill:#0052a5;stroke:#000000;stroke-linecap:butt;" x="229.011696" xlink:href="#C1_7_b2a65f438b" y="391.528404"/>
    </g>
    <g clip-path="url(#p50a717da45)">
     <use style="fill:#0052a5;stroke:#000000;stroke-linecap:butt;" x="485.9712" xlink:href="#C1_8_433d750260" y="690.675768"/>
    </g>
    <g clip-path="url(#p50a717da45)">
     <use style="fill:#0052a5;stroke:#000000;stroke-linecap:butt;" x="643.028544" xlink:href="#C1_9_340d2bc20b" y="231.439464"/>
    </g>
    <g clip-path="url(#p50a717da45)">
     <use style="fill:#0052a5;stroke:#000000;stroke-linecap:butt;" x="667.622736" xlink:href="#C1_a_a72a07b2a1" y="383.315868"/>
    </g>
    <g clip-path="url(#p50a717da45)">
     <use style="fill:#0052a5;stroke:#000000;stroke-linecap:butt;" x="629.77752" xlink:href="#C1_b_d88ccebe84" y="166.561272"/>
    </g>
    <g clip-path="url(#p50a717da45)">
     <use style="fill:#e0162b;stroke:#000000;stroke-linecap:butt;" x="537.253344" xlink:href="#C1_c_bfbdbd5fa2" y="386.322048"/>
    </g>
    <g clip-path="url(#p50a717da45)">
     <use style="fill:#e0162b;stroke:#000000;stroke-linecap:butt;" x="164.553696" xlink:href="#C1_d_4f7c4d1cce" y="134.89956"/>
    </g>
    <g clip-path="url(#p50a717da45)">
     <use style="fill:#e0162b;stroke:#000000;stroke-linecap:butt;" x="389.721312" xlink:href="#C1_e_6a53aec344" y="604.516716"/>
    </g>
    <g clip-path="url(#p50a717da45)">
     <use style="fill:#e0162b;stroke:#000000;stroke-linecap:butt;" x="238.180896" xlink:href="#C1_f_3fdbf888b8" y="240.273324"/>
    </g>
    <g clip-path="url(#p50a717da45)">
     <use style="fill:#e0162b;stroke:#000000;stroke-linecap:butt;" x="298.806336" xlink:href="#C1_10_a955ad24ec" y="272.391228"/>
    </g>
    <g clip-path="url(#p50a717da45)">
     <use style="fill:#e0162b;stroke:#000000;stroke-linecap:butt;" x="217.18728" xlink:href="#C1_11_b1c6992a15" y="187.607448"/>
    </g>
    <g clip-path="url(#p50a717da45)">
     <use style="fill:#e0162b;stroke:#000000;stroke-linecap:butt;" x="295.112304" xlink:href="#C1_12_fd6f815905" y="398.915604"/>
    </g>
   </g>
  </g>
 </g>
</svg>
